# Blender v2.69 (sub 0) OBJ File: 'layermodel.blend'
# www.blender.org
o skin
v -10.000000 10.000000 0.000000
v -10.000000 -10.000000 0.000000
v 10.000000 10.000000 0.000000
v 10.000000 -10.000000 0.000000
v -10.000000 10.000000 1.100000
v -10.000000 -10.000000 1.100000
v 10.000000 10.000000 1.100000
v 10.000000 -10.000000 1.100000
vn 0.000000 0.000000 -1.000000
vn 0.000000 0.000000 1.000000
vn 0.000000 1.000000 0.000000
vn 0.000000 -1.000000 0.000000
vn -1.000000 0.000000 0.000000
vn 1.000000 0.000000 0.000000
g 0_Tsurf
s off
f 4//1 2//1 3//1
g 0_Rsurf
f 8//2 7//2 6//2
g 0
f 1//3 5//3 3//3
f 4//4 8//4 2//4
f 2//5 6//5 1//5
f 3//6 7//6 4//6
g 0_Tsurf
f 2//1 1//1 3//1
g 0_Rsurf
f 7//2 5//2 6//2
g 0
f 5//3 7//3 3//3
f 8//4 6//4 2//4
f 6//5 5//5 1//5
f 7//6 8//6 4//6
