# Blender v2.69 (sub 0) OBJ File: 'model4Planar.blend'
# www.blender.org
o Fetal_Brain_FB
v 80.000000 80.000000 -8.800000
v 80.000000 -80.000000 -8.800000
v -80.000000 -80.000000 -8.800000
v -80.000000 80.000000 -8.800000
v 80.000000 80.000000 8.800000
v 80.000000 -80.000000 8.800000
v -80.000000 -80.000000 8.800000
v -80.000000 80.000000 8.800000
vn 0.000000 0.000000 -1.000000
vn 0.000000 0.000000 1.000000
g 4_Tsurf
s off
f 1//1 2//1 4//1
g 4_Rsurf
f 8//2 7//2 5//2
g 4_Tsurf
f 2//1 3//1 4//1
g 4_Rsurf
f 7//2 6//2 5//2
o Fetal_Skull_FS
v 80.000000 80.000000 -8.960000
v 80.000000 -80.000000 -8.960000
v -80.000000 -80.000000 -8.960000
v -80.000000 80.000000 -8.960000
v 80.000000 80.000000 8.960000
v 80.000000 -80.000000 8.960000
v -80.000000 -80.000000 8.960000
v -80.000000 80.000000 8.960000
vn 0.000000 0.000000 -1.000000
vn 0.000000 0.000000 1.000000
g 3_Tsurf
s off
f 9//3 10//3 12//3
g 3_Rsurf
f 16//4 15//4 13//4
g 3_Tsurf
f 10//3 11//3 12//3
g 3_Rsurf
f 15//4 14//4 13//4
o Fetal_Tissue_FT
v 80.000000 80.000000 -9.300000
v 80.000000 -80.000000 -9.300000
v -80.000000 -80.000000 -9.300000
v -80.000000 80.000000 -9.300000
v 80.000000 80.000000 9.300000
v 80.000000 -80.000000 9.300000
v -80.000000 -80.000000 9.300000
v -80.000000 80.000000 9.300000
vn 0.000000 0.000000 -1.000000
vn 0.000000 0.000000 1.000000
g 2_Tsurf
s off
f 17//5 18//5 20//5
g 2_Rsurf
f 24//6 23//6 21//6
g 2_Tsurf
f 18//5 19//5 20//5
g 2_Rsurf
f 23//6 22//6 21//6
o Amniotic_Fluid_AF
v 80.000000 80.000000 -10.200000
v 80.000000 -80.000000 -10.200000
v -80.000000 -80.000000 -10.200000
v -80.000000 80.000000 -10.200000
v 80.000000 80.000000 10.200000
v 80.000000 -80.000000 10.200000
v -80.000000 -80.000000 10.200000
v -80.000000 80.000000 10.200000
vn 0.000000 0.000000 -1.000000
vn 0.000000 0.000000 1.000000
g 1_Tsurf
s off
f 25//7 26//7 28//7
g 1_Rsurf
f 32//8 31//8 29//8
g 1_Tsurf
f 26//7 27//7 28//7
g 1_Rsurf
f 31//8 30//8 29//8
o Maternal_Tissue_MT
v 80.000000 80.000000 -11.800000
v 80.000000 -80.000000 -11.800000
v -80.000000 -80.000000 -11.800000
v -80.000000 80.000000 -11.800000
v 80.000000 80.000000 11.800000
v 80.000000 -80.000000 11.800000
v -80.000000 -80.000000 11.800000
v -80.000000 80.000000 11.800000
vn 0.000000 0.000000 -1.000000
vn 0.000000 0.000000 1.000000
g 0_Tsurf
s off
f 33//9 34//9 36//9
g 0_Rsurf
f 40//10 39//10 37//10
g 0_Tsurf
f 34//9 35//9 36//9
g 0_Rsurf
f 39//10 38//10 37//10
