# Blender v2.69 (sub 0) OBJ File: 'layermodel.blend'
# www.blender.org
o skin
v -50.000000 -42.301262 -26.732061
v 50.000000 -42.301262 -26.732061
v -50.000000 44.301262 23.267962
v 50.000000 44.301262 23.267962
v -50.000000 -43.301262 -25.000011
v 50.000000 -43.301262 -25.000011
v -50.000000 43.301262 25.000011
v 50.000000 43.301262 25.000011
vn 0.000000 0.500000 -0.866025
vn 0.000000 -0.500000 0.866025
vn -1.000000 0.000000 0.000000
vn 1.000000 -0.000002 0.000000
vn 0.000000 -0.866025 -0.500000
vn 0.000000 0.866025 0.500000
vn 1.000000 0.000002 0.000000
g 0_Tsurf
s off
f 4//1 2//1 3//1
g 0_Rsurf
f 8//2 7//2 6//2
g 0
f 1//3 5//3 3//3
f 4//4 8//4 2//4
f 2//5 6//5 1//5
f 3//6 7//6 4//6
g 0_Tsurf
f 2//1 1//1 3//1
g 0_Rsurf
f 7//2 5//2 6//2
g 0
f 5//3 7//3 3//3
f 8//7 6//7 2//7
f 6//5 5//5 1//5
f 7//6 8//6 4//6
